HIERARCHY
ROOT Hips
{
	OFFSET -14.64140 90.27770 -84.91600
	CHANNELS 6 Xposition Yposition Zposition Zrotation Xrotation Yrotation
	JOINT Spine
	{
		OFFSET 0.00000 13.20850 -1.60436
		CHANNELS 3 Zrotation Xrotation Yrotation
		JOINT Spine1
		{
			OFFSET 0.00000 8.61716 0.00000
			CHANNELS 3 Zrotation Xrotation Yrotation
			JOINT Spine2
			{
				OFFSET 0.00000 8.61717 0.00000
				CHANNELS 3 Zrotation Xrotation Yrotation
				JOINT Spine3
				{
					OFFSET 0.00000 8.61717 0.00000
					CHANNELS 3 Zrotation Xrotation Yrotation
					JOINT Neck
					{
						OFFSET 0.00000 11.07920 1.10792
						CHANNELS 3 Zrotation Xrotation Yrotation
						JOINT Neck1
						{
							OFFSET 0.00000 7.08032 0.00000
							CHANNELS 3 Zrotation Xrotation Yrotation
							JOINT Head
							{
								OFFSET 0.00000 7.08031 0.00000
								CHANNELS 3 Zrotation Xrotation Yrotation
								End site
								{
									OFFSET 0.00000 0.00000 0.00000
								}
							}
						}
					}
					JOINT RightShoulder
					{
						OFFSET -0.01000 7.91373 5.19711
						CHANNELS 3 Zrotation Xrotation Yrotation
						JOINT RightArm
						{
							OFFSET -18.41580 0.00000 0.00000
							CHANNELS 3 Zrotation Xrotation Yrotation
							JOINT RightForeArm
							{
								OFFSET -29.11090 0.00000 0.00000
								CHANNELS 3 Zrotation Xrotation Yrotation
								JOINT RightHand
								{
									OFFSET -24.65040 0.00000 0.00000
									CHANNELS 3 Zrotation Xrotation Yrotation
									JOINT RightHandThumb1
									{
										OFFSET -5.35114 -0.85590 3.97906
										CHANNELS 3 Zrotation Xrotation Yrotation
										JOINT RightHandThumb2
										{
											OFFSET -4.52789 0.00000 0.00000
											CHANNELS 3 Zrotation Xrotation Yrotation
											JOINT RightHandThumb3
											{
												OFFSET -2.46976 0.00000 0.00000
												CHANNELS 3 Zrotation Xrotation Yrotation
												End site
												{
													OFFSET 0.00000 0.00000 0.00000
												}
											}
										}
									}
									JOINT RightHandIndex1
									{
										OFFSET -14.26970 0.00000 2.88139
										CHANNELS 3 Zrotation Xrotation Yrotation
										JOINT RightHandIndex2
										{
											OFFSET -5.48836 0.00000 0.00000
											CHANNELS 3 Zrotation Xrotation Yrotation
											JOINT RightHandIndex3
											{
												OFFSET -3.01859 0.00000 0.00000
												CHANNELS 3 Zrotation Xrotation Yrotation
												End site
												{
													OFFSET 0.00000 0.00000 0.00000
												}
											}
										}
									}
									JOINT RightHandMiddle1
									{
										OFFSET -14.26970 0.00000 -0.09147
										CHANNELS 3 Zrotation Xrotation Yrotation
										JOINT RightHandMiddle2
										{
											OFFSET -6.17441 0.00000 0.00000
											CHANNELS 3 Zrotation Xrotation Yrotation
											JOINT RightHandMiddle3
											{
												OFFSET -3.56743 0.00000 0.00000
												CHANNELS 3 Zrotation Xrotation Yrotation
												End site
												{
													OFFSET 0.00000 0.00000 0.00000
												}
											}
										}
									}
									JOINT RightHandRing1
									{
										OFFSET -12.69180 0.00000 -3.06433
										CHANNELS 3 Zrotation Xrotation Yrotation
										JOINT RightHandRing2
										{
											OFFSET -5.62556 0.00000 0.00000
											CHANNELS 3 Zrotation Xrotation Yrotation
											JOINT RightHandRing3
											{
												OFFSET -3.56744 0.00000 0.00000
												CHANNELS 3 Zrotation Xrotation Yrotation
												End site
												{
													OFFSET 0.00000 0.00000 0.00000
												}
											}
										}
									}
									JOINT RightHandPinky1
									{
										OFFSET -11.11390 0.00000 -6.03719
										CHANNELS 3 Zrotation Xrotation Yrotation
										JOINT RightHandPinky2
										{
											OFFSET -4.52789 0.00000 0.00000
											CHANNELS 3 Zrotation Xrotation Yrotation
											JOINT RightHandPinky3
											{
												OFFSET -2.46976 0.00000 0.00000
												CHANNELS 3 Zrotation Xrotation Yrotation
												End site
												{
													OFFSET 0.00000 0.00000 0.00000
												}
											}
										}
									}
								}
							}
						}
					}
					JOINT LeftShoulder
					{
						OFFSET 0.01000 7.91373 5.19711
						CHANNELS 3 Zrotation Xrotation Yrotation
						JOINT LeftArm
						{
							OFFSET 18.41580 0.00000 0.00000
							CHANNELS 3 Zrotation Xrotation Yrotation
							JOINT LeftForeArm
							{
								OFFSET 29.11090 0.00000 0.00000
								CHANNELS 3 Zrotation Xrotation Yrotation
								JOINT LeftHand
								{
									OFFSET 24.65040 0.00000 0.00000
									CHANNELS 3 Zrotation Xrotation Yrotation
									JOINT LeftHandThumb1
									{
										OFFSET 5.35114 -0.85590 3.97906
										CHANNELS 3 Zrotation Xrotation Yrotation
										JOINT LeftHandThumb2
										{
											OFFSET 4.52789 0.00000 0.00000
											CHANNELS 3 Zrotation Xrotation Yrotation
											JOINT LeftHandThumb3
											{
												OFFSET 2.46977 0.00000 0.00000
												CHANNELS 3 Zrotation Xrotation Yrotation
												End site
												{
													OFFSET 0.00000 0.00000 0.00000
												}
											}
										}
									}
									JOINT LeftHandIndex1
									{
										OFFSET 14.26970 0.00000 2.88139
										CHANNELS 3 Zrotation Xrotation Yrotation
										JOINT LeftHandIndex2
										{
											OFFSET 5.48836 0.00000 0.00000
											CHANNELS 3 Zrotation Xrotation Yrotation
											JOINT LeftHandIndex3
											{
												OFFSET 3.01859 0.00000 0.00000
												CHANNELS 3 Zrotation Xrotation Yrotation
												End site
												{
													OFFSET 0.00000 0.00000 0.00000
												}
											}
										}
									}
									JOINT LeftHandMiddle1
									{
										OFFSET 14.26970 0.00000 -0.09147
										CHANNELS 3 Zrotation Xrotation Yrotation
										JOINT LeftHandMiddle2
										{
											OFFSET 6.17440 0.00000 0.00000
											CHANNELS 3 Zrotation Xrotation Yrotation
											JOINT LeftHandMiddle3
											{
												OFFSET 3.56744 0.00000 0.00000
												CHANNELS 3 Zrotation Xrotation Yrotation
												End site
												{
													OFFSET 0.00000 0.00000 0.00000
												}
											}
										}
									}
									JOINT LeftHandRing1
									{
										OFFSET 12.69180 0.00000 -3.06433
										CHANNELS 3 Zrotation Xrotation Yrotation
										JOINT LeftHandRing2
										{
											OFFSET 5.62556 0.00000 0.00000
											CHANNELS 3 Zrotation Xrotation Yrotation
											JOINT LeftHandRing3
											{
												OFFSET 3.56744 0.00000 0.00000
												CHANNELS 3 Zrotation Xrotation Yrotation
												End site
												{
													OFFSET 0.00000 0.00000 0.00000
												}
											}
										}
									}
									JOINT LeftHandPinky1
									{
										OFFSET 11.11390 0.00000 -6.03719
										CHANNELS 3 Zrotation Xrotation Yrotation
										JOINT LeftHandPinky2
										{
											OFFSET 4.52789 0.00000 0.00000
											CHANNELS 3 Zrotation Xrotation Yrotation
											JOINT LeftHandPinky3
											{
												OFFSET 2.46976 0.00000 0.00000
												CHANNELS 3 Zrotation Xrotation Yrotation
												End site
												{
													OFFSET 0.00000 0.00000 0.00000
												}
											}
										}
									}
								}
							}
						}
					}
					JOINT pCube4
					{
						OFFSET 0.00000 10.91090 1.10792
						CHANNELS 3 Zrotation Xrotation Yrotation
						End site
						{
							OFFSET 0.00000 0.00000 0.00000
						}
					}
				}
			}
		}
	}
	JOINT RightUpLeg
	{
		OFFSET -9.98441 0.00000 0.00000
		CHANNELS 3 Zrotation Xrotation Yrotation
		JOINT RightLeg
		{
			OFFSET 0.00000 -42.11790 0.00000
			CHANNELS 3 Zrotation Xrotation Yrotation
			JOINT RightFoot
			{
				OFFSET 0.00000 -45.00020 -0.00001
				CHANNELS 3 Zrotation Xrotation Yrotation
				JOINT RightForeFoot
				{
					OFFSET 0.00000 -3.74820 0.00000
					CHANNELS 3 Zrotation Xrotation Yrotation
					JOINT RightToeBase
					{
						OFFSET 0.00000 0.06325 14.43120
						CHANNELS 3 Zrotation Xrotation Yrotation
						End site
						{
							OFFSET 0.00000 0.00000 0.00000
						}
					}
				}
			}
		}
	}
	JOINT LeftUpLeg
	{
		OFFSET 9.98441 0.00000 0.00000
		CHANNELS 3 Zrotation Xrotation Yrotation
		JOINT LeftLeg
		{
			OFFSET 0.00000 -42.11800 0.00000
			CHANNELS 3 Zrotation Xrotation Yrotation
			JOINT LeftFoot
			{
				OFFSET 0.00000 -45.00070 0.00000
				CHANNELS 3 Zrotation Xrotation Yrotation
				JOINT LeftForeFoot
				{
					OFFSET 0.00000 -3.74824 0.00000
					CHANNELS 3 Zrotation Xrotation Yrotation
					JOINT LeftToeBase
					{
						OFFSET 0.00000 0.06325 14.43110
						CHANNELS 3 Zrotation Xrotation Yrotation
						End site
						{
							OFFSET 0.00000 0.00000 0.00000
						}
					}
				}
			}
		}
	}
}
MOTION
Frames: 4
Frame Time: 0.050000
0.01660174206408394 -0.02342732753242123 -0.021527218393159298 0.03081779266482078 -0.012455152405365946 -0.029132695266492883 -3.7155550364361716 2.1647150471113505 -0.7688305816353441 -1.1768663607269934 3.8750718027884536 0.45117899380059817 -1.4165384767160836 -1.4971851838112495 -1.3438813653967094 0.18574348909541757 0.6371570599461513 -0.8851935805478803 0.01194328542552487 11.355592802902713 -0.785737424564239 0.2109238647879764 -2.0198131380681903 -3.4483893831230237 0.7526567343294028 -18.555845246935814 -0.355873043154337 -4.67847534901166 1.5992313531252516 -14.921735042293925 74.53790142515163 24.4768036527097 0.008890881220762975 -2.540359802105885 1.8534506367886794 40.31477739210565 19.63713697445981 -0.13115547395884633 -3.7761852028783025 4.51785279290813 -0.09608133272333431 -1.5588274752183962 -0.04147558981374465 0.010727144422412663 -56.247807497420595 0.022107706776575094 0.022588268188850014 -56.215232167367446 -38.80202926815528 0.008799154486292262 0.009062689436012999 -0.018508840738053676 0.03161506420004912 -0.0010798985617811352 -0.030870607401662236 0.02847458189871987 -0.024358298489641758 -36.674084729924644 0.010964460759522945 0.02441442641198493 0.01836763363209334 0.03633471597936421 -0.02138010346130193 0.015290124732851596 0.0058166889147565235 -0.004408534244550339 -19.76796902014986 0.009895584019305903 -0.007728020509086372 -0.04088199768459604 0.004683077953379196 0.02481630133971408 0.00391154278535534 -0.04114010497925328 0.03434437303466027 24.008902755339857 0.02932647781577023 0.013666527366356656 28.89040287816303 0.03867965100066991 0.017642810696013173 28.845847516146343 0.013933840243487563 0.034926098566321596 5.044240287460098 1.1737687999002258 12.832339029330546 -71.72314927284043 26.72818766780905 -6.185393024164288 1.397827104123708 -7.7193129949518555 -40.736482781618385 -8.341208241707857 1.498642729710804 2.5152044245336658 -0.4897977199141177 0.06847859469961566 -8.123897086285883 0.01435709816574324 0.01649746863576505 44.56742704517236 0.0018659098958388942 -0.005547420301053648 44.55016522961264 12.454312685934546 0.01890691770151698 -0.006000275248668867 0.023752340217674205 -0.03531053594962454 -0.025620043176565358 0.026913075766669292 0.012446667703180961 -0.02367107690128462 11.122945235631379 -0.01621273098793333 -0.03839724352753414 -0.01842192060339038 0.013221053015282508 0.004512848289550994 -0.03632098038980163 0.029951465998651894 -0.03772093539637182 4.752328865998797 -0.002007515725636227 0.022026287458324124 0.034440131739002 0.03300983269169423 -0.000998702361096241 0.017895637527648268 -0.0060104152000942076 -0.046278996122157155 -5.565000461832569 -0.025363948591746455 -0.027778134688525264 -6.717253824410144 0.01944957105587954 -0.02256681191315959 -6.767736033040907 0.018168331346751675 0.03485095141921503 -0.03965716699462717 0.013411330819176991 -0.025573165874024275 8.047614100129048 3.5107929224299625 -19.196959097139832 0.02889181090219581 10.43977188943097 0.016509770218446088 -5.594233438249595 -15.681230143701455 3.2082322936405663 -0.041727323060424384 -0.009784400139123902 0.04921602336622638 0.03822684509624416 4.703413108424449 -0.04623842274939376 12.494843935825687 -8.231764664658312 6.868982312140931 0.012540216349612063 46.36096046092076 -0.047281554509413654 -4.297722199157977 -14.780295289798 -3.8498764025373764 0.015232558980553543 -0.008198985244587561 0.016579093053985406 0.04382205020378073 -10.740078673377106 -0.01353686041650537 
0.018449698513025883 0.005951247248881074 -0.024876103478676297 -0.005545329363014346 -0.004459545018774519 0.04276611336672983 -3.5493482829619465 2.1650801776132993 -0.756080635509031 -1.2065652176234511 3.884768278252788 0.4209898090786605 -1.3744318111805705 -1.4646551304803803 -1.2279086960120784 0.1925918400977399 0.645147200696024 -0.8392057702399769 0.047817608937796366 11.463982389935792 -0.7719407266926593 0.22714111399560222 -1.9256437966852622 -3.4685019255718417 0.7292974671123336 -18.423948958718476 -0.3659264164107695 -4.678812859817316 1.649073520559258 -14.74269927982186 73.94528176525654 24.40191028505284 0.6486502643371368 -2.481324527051696 1.7436989688934519 42.097672198704885 19.79238131270414 -0.1247618163175488 -3.8416624457481063 4.5446595047527 -0.12334129125220672 -1.5642081214571595 -0.016480452117970782 -0.047222787467092416 -56.199504540179724 -0.0416195452496129 0.03253015403164244 -56.278717893444075 -38.766947070534684 -0.004144791419476627 0.03054706694423863 -0.009449329488547075 0.02101668777891296 -0.03940320683295345 0.006929867115144744 -0.04827189678108909 -0.0337851206480344 -36.7028176442904 -0.013536669658487372 -0.03645150153651352 -0.029174752393413193 -0.020630448485597894 0.04784579797879827 0.0035574704658792107 0.01733368931673233 -0.03898068231435617 -19.764246103913045 0.01801191521783403 -0.04569583925599404 0.014006208381065336 0.009816070136880932 0.006336108466235232 -0.049379785041651955 0.03027045324700892 -0.028526339079207985 24.062713865600056 0.019784056553556858 0.023937058464133097 28.890256766192746 -0.0070087187834977655 0.04607717427942438 28.82845651006738 0.03196322694545013 -0.03730674231342134 5.091240507015757 1.2081720904928521 12.876727781834752 -71.51097015667754 26.610226873097343 -6.585221914882338 1.5780927141667505 -7.7952546010832435 -42.57662090167438 -8.491976359878294 1.512231626523801 2.363404086212591 -0.4504641988488265 0.09154626554073174 -8.131370764383782 -0.011139732037171918 0.011482319507076181 44.52866753416859 -0.03305535890099116 -0.04620971412624267 44.57514505097382 12.421017264613047 0.043156197873230065 -0.01805014299566318 0.003289058750671565 -0.0453641423001177 -0.0034213400309848845 0.0018930155253479646 0.026656078882655455 -0.026889910027187484 11.106838669444508 -0.010788828670516623 -0.038122043145887796 -0.0072502024807728225 -0.024211216963040964 -0.0026622091974087938 0.033867167701889085 -0.007973658606488718 0.028210374806489816 4.755175723541893 0.035652086732256026 0.04567178811809407 -0.009389971406265536 -0.01724233917303753 0.003727508360954247 0.003932491716532582 -0.01788139402938772 -0.002018845305338667 -5.640179155844075 0.0127622984466253 0.011943421622681293 -6.692621617508795 0.03578588350812217 -0.044903420220988505 -6.738680885986801 -0.004750412185663297 -0.02278559404321952 0.016172185277183636 0.00574052167850828 0.004504764367393711 8.005501798996239 3.4602593443565177 -19.215976878465327 -0.030692979833939694 10.411153459049082 0.04187441123673044 -5.648952248887299 -15.69689715087158 3.226306212851321 -0.017618126952903004 0.012093442991367527 -0.005596721970305513 -0.018125677753859044 4.69912390423763 0.002749803387442513 12.409872612669963 -8.244404275686412 6.897928843381531 -0.02550622354774271 46.35689452473754 -0.02451818348996422 -4.357434439763457 -14.735737868294326 -3.8771837054979295 0.00830672937970782 0.03986707077279139 -0.016968792532852734 -0.015334647868735401 -10.756251459503565 -0.03856375650980667 
0.009622627719964546 0.026875447404271526 -0.0008000042823345086 0.03060633213720095 0.002833643595692917 -0.025655546690251364 -3.3621139687289388 2.1740011466138065 -0.7670141820430314 -1.1496703028195725 3.828574977837638 0.42501042364033825 -1.2857458737263114 -1.4364541135999762 -1.1767757916492403 0.15609241914507668 0.6009688519630032 -0.8059085697322458 0.06210832737054331 11.573757718879994 -0.7463147050380681 0.18889648892316094 -1.704835304637612 -3.6391050412634733 0.6589748752235058 -18.099478599782056 -0.35676352725170013 -4.663379934711955 1.6297550970549863 -14.599641565267387 73.15969470921706 24.31665968896564 1.7099710350571158 -1.791786735125215 1.4722107498116677 45.31106881036389 19.681479851336533 -0.08465851627126367 -3.8355153899381573 4.532903717899672 -0.11269133407371176 -1.6080145041841152 -0.024563587650697126 -0.006298352477963355 -56.28154252806534 0.006212834859569292 0.03628119780414873 -56.26148081500101 -38.73223191055887 -0.014996607976765209 -0.01949797993673074 -0.01748110256762523 -0.03704416103621855 0.014154136274400762 -0.04771711221911317 0.01294552927545264 0.03916500117355295 -36.655945566265196 0.006925299141616508 -0.008121908209082972 0.016806417240125826 0.03502810908858671 0.013430964015576804 -0.0477909508384898 0.01206118509598771 -0.03912023831799459 -19.80783398705894 -0.04059715065739734 -0.0207472994838753 -0.037504806592155965 -0.005746115952143394 -0.03956084923362819 -0.03203864634335219 -0.03333115817902866 -0.020786674671263043 24.01951807256607 0.0009906905837388602 0.02555278253137859 28.868904427624276 0.043408413856532366 -0.04207484831825427 28.906355402194233 0.003325931442659622 0.0457136110796742 5.206638325484584 1.2245063128970872 12.822456127939567 -70.6619946669619 26.757156444961225 -7.645768201248838 0.722719218236532 -7.621993222192549 -46.72798868988575 -8.488270769802416 1.0472576790842991 2.391907097751512 -0.4757612715637167 0.07938195273253182 -8.159966580265928 0.03628648524812003 -0.01523312067898864 44.555271507211614 -0.031281673544240086 0.011147340977398128 44.56471814414489 12.495647031462262 -0.009822912496494344 0.038403113739972114 -0.029463917066632348 -0.011419424165949226 -0.02932095113499644 -0.02446828467674262 0.03752189748732495 -0.00850913727278853 11.126323735468251 0.04691233483436276 0.015392812194322553 0.04676069461078531 -0.01643825998965033 -0.026923570713424175 -0.045510837752171796 -0.020200366832197447 0.03819812337697347 4.785729477733492 0.029724439635743862 0.04901356236804007 -0.011273245535315429 0.009358855368973946 -0.04599286272818951 -0.049090943574966066 -0.006991357251315554 0.028749390099577787 -5.594011815033646 -0.029942212675486794 0.0012156793756496313 -6.686821604189489 0.020052702157576898 -0.019506292897242733 -6.75311103111722 -0.02115729045179901 -0.0024514005954245684 0.013847297927376845 0.012838635495154911 0.0009391556077672677 8.021078200576117 3.5075495171505136 -19.25596746035864 -0.04704809602164895 10.431979129238249 -0.008182474904039387 -5.616908195564745 -15.65091689819431 3.232588018413725 -0.034210683190332915 -0.0055193392028226596 0.02470708940520412 -0.023501704750685703 4.67391076587955 0.02369948874747167 12.425265887260005 -8.223576219832948 6.907302246567605 0.01137590629957797 46.33543410559858 0.01232258918878423 -4.3183062503598055 -14.790179019858176 -3.79344634688847 0.03714971219053283 -0.048831758724676176 -0.017142856856797842 -0.01725765019911013 -10.793448864672738 -0.003768066831555014 
-0.026921901183738606 0.008365235723206887 0.04164543316257646 -0.0019881520523913686 -0.027751125324984912 0.02231438728607469 -3.2283995411134785 2.1414587518476433 -0.8063850000774048 -1.125335171612649 3.8438537369803947 0.41747081232964767 -1.3014042130925079 -1.5092286948665596 -1.1877350168315803 0.19138678126247236 0.6148632830942848 -0.7886034533371984 0.06213338585356025 11.682895895145947 -0.8826429091887176 0.1932872506353156 -1.4460965788916738 -3.8761065179858227 0.70220973289523 -17.683673251089285 -0.37522483522255773 -4.6120038247933435 1.6810090503982864 -14.411374353055658 72.58980697965617 24.112474669133835 2.936658418730972 -0.22269811039547166 1.2466649128694058 49.59435094690787 19.413820079725554 -0.13477141167107345 -3.828653739003771 4.543768905440932 -0.17426664015809498 -1.561601988347812 -0.005923794581249511 -0.026643107491706258 -56.28269075207009 0.022194286089102164 -0.04269514557834162 -56.2621556370972 -38.78102306798082 0.029323596842446748 -0.0037539313386860643 0.004509054536601377 -0.04480971425454675 -0.012411918543905982 -0.0427628369118358 0.01669346907690223 0.010833096243272725 -36.692617877827765 0.009415135252151584 -0.011444211232812713 0.018134924925468324 0.003494957888347815 0.032314311372247266 0.00026488945513571783 0.021052376442076193 0.024353685360883764 -19.745054280263748 -0.01074696060303567 0.0333326786326576 -0.04692946837367269 -0.031896579100164496 -0.03800609710919044 0.03963096293091634 0.02363769130945461 0.004428694981128444 24.095379102668115 0.01736082249083775 0.0193681649771012 28.850873284047065 0.015848605535029918 -0.007000722814154047 28.82382313326581 -0.019600737676377326 0.012321136389052724 5.428461013135027 1.3203559468194703 12.666490573134812 -69.3941907761495 27.196393390897928 -8.881278161634548 -1.6691490995602338 -6.962558357476949 -53.74515484708077 -8.771127727462865 -0.07339917828232997 2.7755393935111226 -0.4884994424108409 0.1088212191838423 -8.115922755153944 0.017423402730149345 -0.029739160609437338 44.59920533092245 0.004810319006067705 -0.028207442778304444 44.58885385048018 12.47107742167726 0.02362773521082276 0.040300505487581226 0.009045693392070937 -0.03419227959455161 -0.023919522209180286 -0.019864153451424702 0.03504841949020973 -0.00857283354166581 11.131122908680817 -0.03225056986878008 0.023203032179709093 0.008321727181002384 -0.0067465508155355024 0.004208006610251741 -0.03608185130175367 -0.022996000856216153 -0.043793819230119005 4.759287266759519 -0.04101950117848306 -0.01833390281299731 0.02756965181318971 0.04792800841059852 0.03236726060525042 0.02584990728042133 0.048304603648089334 0.0031619182219034133 -5.624720640130342 0.04748313027457725 -0.04838721402142871 -6.7706726535791395 0.02859434934492977 -0.025659098849688793 -6.682546380965729 -0.04038539709242333 0.04882351390091762 -0.01439530259821851 0.0010552007601354943 -0.01719559744181504 8.037663688008957 3.4549857036466882 -19.16999776667409 -0.04208774593847587 10.352191190917885 0.05655627909444075 -5.614971160543342 -15.647109356426588 3.1487177305514225 -0.03637049092838186 0.031742619276270104 -0.04951222455835673 0.04555701955082415 4.682107362032713 0.029878702115109807 12.423183114961676 -8.268696853040193 6.922947215983066 0.04590443759831053 46.36550666441523 0.04900339155657603 -4.320716768166123 -14.756696202911781 -3.8124419958013873 -0.033392449998371966 0.038582810449114636 -0.022673022762613133 0.013908830628123864 -10.767072511870788 -0.04867639816674205 
